<svg xmlns="http://www.w3.org/2000/svg" data-name="Layer 1" viewBox="0 0 1000 1250" x="0px" y="0px"><title>603-Voting</title><path d="M481.33,623.49a51.21,51.21,0,0,1-15.26-2.36c-13.3-4.16-23.87-12.79-33.32-21.49a400.56,400.56,0,0,1-76.68-96.37l-.58-1c-2.11-3.7-4.09-7.2-6.25-9.44a50.08,50.08,0,0,0-8.1-6.08l-2.26-1.5c-27.8-18.63-49.64-45.23-61.49-74.89a15.69,15.69,0,0,1-1.08-4.48c-.27-.73-.81-2-1.2-2.83a51.54,51.54,0,0,1-2.41-6.13c-1.37-4.56-2.58-9.33-3.61-14.16a212.32,212.32,0,0,1-3.9-27.77c-1.48-18.91-.83-37.84.09-55.49q.38-7.12.8-14.26c.85-14.61,1.72-29.72,1.71-44.37a267.12,267.12,0,0,0-1.34-27.8c-.07-.63-.15-1.2-.22-1.71-.5-3.64-1.67-12.18,5.56-18.86h0a23,23,0,0,1,11.86-5.42l11.11-2,134.47-23.95c4.53-.8,11.37-2,18.82.53,5.83,2,9.89,5.6,12.57,8,42.51,37.85,86.46,77,124.28,121.9,22.69,27,49.65,63.61,56.86,108.11A16,16,0,0,1,626,418.21h-167L514.29,546.5c4.92,11.4,18,41.68-1,63.33C505.51,618.69,493.84,623.49,481.33,623.49ZM307.89,400.37c9.65,23,26.91,43.6,48.8,58.27.68.46,1.37.91,2.06,1.36a75.57,75.57,0,0,1,13.57,10.63c4.93,5.13,8.15,10.8,11,15.81l.56,1a368.6,368.6,0,0,0,70.57,88.69c6.24,5.75,13.54,12.08,21.18,14.47,5.27,1.65,11.25.83,13.61-1.86,2.58-2.94,3.92-10.45-4.32-29.54L410.66,387.12A16,16,0,0,1,440,374.37l5.18,11.84H605.62c-9.48-29-28.62-54.35-45.21-74.06C524.08,269,481,230.63,439.35,193.54c-.44-.39-1.08-.95-1.59-1.37-.91.1-2.2.33-2.92.46l-134.49,24-1.43.26c.57,7.48.86,15.38.87,24,0,15.59-.89,31.18-1.76,46.25q-.42,7-.79,14.08c-.87,16.56-1.48,34.25-.15,51.33a180.37,180.37,0,0,0,3.31,23.63c.84,4,1.83,7.86,3,11.58.12.36.65,1.56,1,2.35A43.79,43.79,0,0,1,307.89,400.37Zm-31.45,5.86h0Zm-.19-1.84v0ZM438.56,192.12Zm-1.48-.46Z"/><path d="M647.28,696.61H353.18a16,16,0,0,1-16-16V476.06a16,16,0,0,1,32,0V664.61h262.1V418.21h-5.34a16,16,0,0,1,0-32h21.34a16,16,0,0,1,16,16v278.4A16,16,0,0,1,647.28,696.61Z"/><path d="M849.84,916H150.16a16,16,0,0,1-15.57-19.68l75.3-319A16,16,0,0,1,225.46,565H353.18a16,16,0,1,1,0,32h-115L170.38,884H829.63L761.87,597H647.28a16,16,0,0,1,0-32H774.54a16,16,0,0,1,15.57,12.33l75.3,319A16,16,0,0,1,849.84,916Z"/><path d="M673.74,768.45H325.21A60.29,60.29,0,0,1,265,708.23v-2.61a72.26,72.26,0,0,1,72.18-72.18h16a16,16,0,1,1,0,32h-16A40.23,40.23,0,0,0,297,705.62v2.61a28.25,28.25,0,0,0,28.22,28.22H673.74A28.25,28.25,0,0,0,702,708.23v-1.85a41,41,0,0,0-41-40.94H647.28a16,16,0,0,1,0-32H661a73,73,0,0,1,73,72.94v1.85A60.3,60.3,0,0,1,673.74,768.45Z"/><path d="M232.05,228.2A32.64,32.64,0,0,1,200,201.31l-5.79-32.42A32.64,32.64,0,0,1,220.58,131L481,84.51a32.62,32.62,0,0,1,37.85,26.37l5.79,32.43a32.62,32.62,0,0,1-26.37,37.84L237.85,227.68A32.57,32.57,0,0,1,232.05,228.2ZM486.75,116h-.12L226.21,162.54a.62.62,0,0,0-.5.72l5.8,32.42a.52.52,0,0,0,.25.4.53.53,0,0,0,.46.1l260.42-46.53h0a.55.55,0,0,0,.4-.25.62.62,0,0,0,.1-.47l-5.79-32.42a.61.61,0,0,0-.26-.4A.58.58,0,0,0,486.75,116Z"/><text x="0" y="1015" fill="#000000" font-size="5px" font-weight="bold" font-family="'Helvetica Neue', Helvetica, Arial-Unicode, Arial, Sans-serif">Created by IYIKON</text><text x="0" y="1020" fill="#000000" font-size="5px" font-weight="bold" font-family="'Helvetica Neue', Helvetica, Arial-Unicode, Arial, Sans-serif">from the Noun Project</text></svg>